<?xml version="1.0" standalone="no"?>
<!DOCTYPE svg PUBLIC "-//W3C//DTD SVG 20010904//EN"
 "http://www.w3.org/TR/2001/REC-SVG-20010904/DTD/svg10.dtd">
<svg version="1.0" xmlns="http://www.w3.org/2000/svg"
 width="240.000000pt" height="240.000000pt" viewBox="0 0 240.000000 240.000000"
 preserveAspectRatio="xMidYMid meet">

<g transform="translate(0.000000,240.000000) scale(0.100000,-0.100000)"
fill="#000000" stroke="none">
<path d="M618 1505 c-192 -33 -374 -130 -423 -226 -20 -37 -19 -103 1 -145 38
-81 184 -169 364 -221 l95 -27 470 -4 c506 -4 596 2 743 44 152 44 283 124
327 198 84 143 -44 286 -331 368 -77 22 -92 22 -624 24 -414 2 -563 -1 -622
-11z m1182 -44 c208 -74 313 -183 281 -293 -27 -89 -167 -189 -331 -235 -59
-16 -111 -18 -540 -18 -538 0 -538 0 -706 81 -216 103 -246 254 -76 379 56 41
188 91 274 104 35 5 281 8 548 7 479 -2 486 -2 550 -25z"/>
<path d="M1503 1350 c-52 -31 -63 -65 -63 -190 l0 -110 40 0 40 0 0 95 c0 88
2 98 25 120 29 30 58 32 85 5 17 -17 20 -33 20 -120 l0 -100 55 0 55 0 0 94
c0 79 3 97 21 120 23 29 54 33 87 10 20 -14 22 -23 22 -120 l0 -104 45 0 45 0
0 100 c0 110 -11 150 -54 189 -49 46 -163 38 -205 -13 -12 -14 -17 -13 -48 14
-28 25 -42 30 -86 30 -34 0 -63 -7 -84 -20z"/>
<path d="M433 1339 c-56 -28 -85 -76 -85 -141 0 -54 17 -86 66 -122 26 -20 41
-21 221 -21 184 0 196 1 215 21 12 12 24 40 27 62 5 36 2 45 -25 72 l-30 30
-161 0 -161 0 0 -40 0 -40 145 0 c125 0 145 -2 145 -16 0 -13 -20 -15 -161
-12 -155 3 -161 4 -180 27 -24 30 -24 62 0 92 19 24 23 24 221 27 l201 3 -3
37 -3 37 -195 3 c-181 2 -198 1 -237 -19z"/>
<path d="M941 1346 c-47 -26 -63 -84 -37 -135 24 -45 51 -51 247 -51 140 0
180 -3 177 -12 -4 -10 -58 -14 -216 -16 l-212 -2 0 -40 0 -40 220 0 c245 0
267 5 290 60 10 25 10 39 1 71 -19 62 -46 69 -256 69 -108 0 -175 4 -175 10 0
6 82 11 213 12 l212 3 0 40 0 40 -220 2 c-168 2 -226 -1 -244 -11z"/>
</g>
</svg>
